<svg fill="currentColor" fill-rule="evenodd" height="1em" style="flex:none;line-height:1" viewBox="0 0 24 24" width="1em" xmlns="http://www.w3.org/2000/svg"><title>CLIProxyAPI</title><path d="M12 2a4 4 0 0 1 4 4c0 1.2-.5 2.2-1.3 3H17a3 3 0 0 1 3 3v1h2v4h-2v1a3 3 0 0 1-3 3h-2.3c.8.8 1.3 1.8 1.3 3a4 4 0 1 1-8 0c0-1.2.5-2.2 1.3-3H7a3 3 0 0 1-3-3v-1H2v-4h2v-1a3 3 0 0 1 3-3h2.3A4 4 0 0 1 8 6a4 4 0 0 1 4-4zm0 2a2 2 0 1 0 0 4 2 2 0 0 0 0-4zm-5 7a1 1 0 0 0-1 1v4a1 1 0 0 0 1 1h10a1 1 0 0 0 1-1v-4a1 1 0 0 0-1-1H7zm5 9a2 2 0 1 0 0 4 2 2 0 0 0 0-4z"/></svg>
