<svg fill="currentColor" fill-rule="evenodd" height="1em" style="flex:none;line-height:1" viewBox="0 0 24 24" width="1em" xmlns="http://www.w3.org/2000/svg"><title>TabbyAPI</title><path d="M3 5l3-4h2l2 3h4l2-3h2l3 4v4a4 4 0 0 1-1 2.6V19a3 3 0 0 1-3 3H7a3 3 0 0 1-3-3v-7.4A4 4 0 0 1 3 9V5zm2 .8V9a2 2 0 0 0 .6 1.4L6 10.8V19a1 1 0 0 0 1 1h10a1 1 0 0 0 1-1v-8.2l.4-.4A2 2 0 0 0 19 9V5.8L17.2 3.5 15.8 5H8.2L6.8 3.5 5 5.8zM9 10a1.5 1.5 0 1 1 0-3 1.5 1.5 0 0 1 0 3zm6 0a1.5 1.5 0 1 1 0-3 1.5 1.5 0 0 1 0 3zm-5 4h4l-2 3-2-3z"/></svg>
